<svg id="Calque_1" data-name="Calque 1" xmlns="http://www.w3.org/2000/svg" viewBox="0 0 600.84 595.28"><defs><style>.cls-1{fill:#010101;}.cls-2{fill:#fffefe;}</style></defs><title>Plan de travail 1 copie 23</title><path class="cls-1" d="M538.73,414.69v-204c0-52,4.89-110.51-52.8-135.66-18.87-8.23-38.19-7.29-58.13-7.29H333.12c-57.42,0-115.1-1.66-172.49,0-60.24,1.75-90.23,47-90.23,102.9V366.26c0,47.49-10.51,109.25,28.55,144.87,41.32,37.68,123.11,22.92,173.94,22.92H451.35c39.1-2.12,73.38-25.47,84.15-64.26C540.39,452.2,538.73,432.77,538.73,414.69Zm-87.38,100c-93.74,0-187.53,1-281.26,0-31.11-.34-59.28-9.31-73.79-39.9-8.28-17.44-6.47-37.15-6.47-56V244.37c0-41.92-11.64-108.63,22.86-140,32.26-29.31,102.1-17.23,141.76-17.23H425.91c20.52,0,41.07-1.6,59.67,9.32,27.31,16,33.74,43.73,33.74,72.62V354.41C519.31,412.52,535.67,510.06,451.35,514.64Z"/><circle class="cls-1" cx="282.47" cy="248.8" r="68.14"/><path class="cls-1" d="M332.62,248.8c-3.46,64.24-100.31,64.81-100.31,0s96.84-64.27,100.31,0c1.24,23,37.23,23.18,36,0-2.51-46.69-37.42-86.13-86.13-86.13-46.81,0-86.13,39.34-86.13,86.13,0,45.46,37.07,84,82.42,85.93C328.92,336.86,366,297,368.6,248.8,369.85,225.66,333.86,225.73,332.62,248.8Z"/><path class="cls-1" d="M419.36,417.45,338.52,294.05c-12.64-19.29-43.81-1.28-31.07,18.16L388.3,435.61c12.64,19.29,43.81,1.28,31.07-18.16Z"/><path class="cls-2" d="M272.12,196.65v98.86c0,11.58,18,11.6,18,0V196.65c0-11.58-18-11.6-18,0Z"/><path class="cls-2" d="M233.31,254.53h95.19c11.58,0,11.6-18,0-18H233.31c-11.58,0-11.6,18,0,18Z"/></svg>