<svg id="Calque_1" data-name="Calque 1" xmlns="http://www.w3.org/2000/svg" viewBox="0 0 600.84 595.28"><defs><style>.cls-1{fill:#010101;}</style></defs><title>Plan de travail 1 copie 17</title><path class="cls-1" d="M533.73,413.69v-204c0-52,4.89-110.51-52.8-135.66-18.87-8.23-38.19-7.29-58.13-7.29H328.12c-57.42,0-115.1-1.66-172.49,0-60.24,1.75-90.23,47-90.23,102.9V365.26c0,47.49-10.51,109.25,28.55,144.87,41.32,37.68,123.11,22.92,173.94,22.92H446.35c39.1-2.12,73.38-25.47,84.15-64.26C535.38,451.2,533.73,431.77,533.73,413.69Zm-87.38,100c-93.74,0-187.53,1-281.26,0-31.11-.34-59.28-9.31-73.79-39.9-8.28-17.44-6.47-37.15-6.47-56V243.37c0-41.92-11.64-108.63,22.86-140,32.26-29.31,102.1-17.23,141.76-17.23H420.91c20.52,0,41.07-1.6,59.67,9.32,27.31,16,33.74,43.73,33.74,72.62V353.41C514.31,411.52,530.67,509.06,446.35,513.64Z"/><path class="cls-1" d="M270,356.18s-36.28,2.94-49.35,37.26,40.53,46.74,62.43,37.59,39.22-24.84,39.22-43.8,1.31-131.39,1.31-138.91,3.92-13.07,11.11-11.44,31.7,22.88,36.28,51a119.29,119.29,0,0,1,.65,23.21c-.33,2.94,6.21,7.52,8.17,1.63S395.55,282,371.37,248s-19.28-16.67-43.14-52c-4.58-9.15-5.88-15.69-11.44-15.36s-5.56,1.31-5.56,20.26V346c0,9.15-.65,17.32-10.79,13.73S277.24,355.53,270,356.18Z"/></svg>