<svg id="Calque_1" data-name="Calque 1" xmlns="http://www.w3.org/2000/svg" viewBox="0 0 600.84 595.28"><defs><style>.cls-1{fill:#010101;}</style></defs><title>Plan de travail 1 copie 5</title><path class="cls-1" d="M539.73,409.69v-204c0-52,4.89-110.51-52.8-135.66-18.87-8.23-38.19-7.29-58.13-7.29H334.12c-57.42,0-115.1-1.66-172.49,0-60.24,1.75-90.23,47-90.23,102.9V361.26c0,47.49-10.51,109.25,28.55,144.87,41.32,37.68,123.11,22.92,173.94,22.92H452.35c39.1-2.12,73.38-25.47,84.15-64.26C541.39,447.2,539.73,427.77,539.73,409.69Zm-87.38,100c-93.74,0-187.53,1-281.26,0-31.11-.34-59.28-9.31-73.79-39.9-8.28-17.44-6.47-37.15-6.47-56V239.37c0-41.92-11.64-108.63,22.86-140,32.26-29.31,102.1-17.23,141.76-17.23H426.91c20.52,0,41.07-1.6,59.67,9.32,27.31,16,33.74,43.73,33.74,72.62V349.41C520.31,407.52,536.67,505.06,452.35,509.64Z"/><path class="cls-1" d="M387.49,299.43a7.52,7.52,0,0,0-7.41-7.41H236.43a7.52,7.52,0,0,0-7.41,7.41v104a7.52,7.52,0,0,0,7.41,7.41H380.08a6.83,6.83,0,0,0,5-2l.25-.24.14-.15a6.83,6.83,0,0,0,2-5ZM372.67,396H243.84V306.84H372.67Z"/><path class="cls-1" d="M376.07,200.26a7.52,7.52,0,0,0-7.41-7.41H246.09a7.52,7.52,0,0,0-7.41,7.41V269.8a7.52,7.52,0,0,0,7.41,7.41H368.66a6.83,6.83,0,0,0,5-2l.25-.24.14-.14a6.84,6.84,0,0,0,2-5Zm-14.82,62.13H253.5V207.67H361.25Z"/><path class="cls-1" d="M351,217.19a7.52,7.52,0,0,0-7.41-7.41H328.19a7.52,7.52,0,0,0-7.41,7.41V253a7.52,7.52,0,0,0,7.41,7.41h15.36a6.83,6.83,0,0,0,5-2l.25-.24.14-.14a6.84,6.84,0,0,0,2-5Z"/><path class="cls-1" d="M425.52,202.34l-28.9-25.58a7.93,7.93,0,0,0-1.84-1.2,7,7,0,0,0-4.43-1.43H188.94a7.52,7.52,0,0,0-7.41,7.41V423.23a7.52,7.52,0,0,0,7.41,7.41H422.36a7.52,7.52,0,0,0,7.41-7.41V208.86A6.71,6.71,0,0,0,425.52,202.34ZM196.35,415.82V189H388.07L415,212.75V415.82Z"/><rect class="cls-1" x="259.34" y="329.34" width="98.8" height="4.94"/><rect class="cls-1" x="260.16" y="346.63" width="98.8" height="4.94"/><rect class="cls-1" x="260.16" y="364.74" width="98.8" height="4.94"/></svg>