<svg id="Calque_1" data-name="Calque 1" xmlns="http://www.w3.org/2000/svg" viewBox="0 0 600.84 595.28"><defs><style>.cls-1{fill:#010101;}</style></defs><title>Plan de travail 1 copie</title><path class="cls-1" d="M534.67,409.69v-204c0-52,4.89-110.51-52.8-135.66-18.87-8.23-38.19-7.29-58.13-7.29H329.06c-57.42,0-115.1-1.66-172.49,0-60.24,1.75-90.23,47-90.23,102.9V361.26c0,47.49-10.51,109.25,28.55,144.87C136.2,543.82,218,529.05,268.82,529.05H447.28c39.1-2.12,73.38-25.47,84.15-64.26C536.32,447.2,534.67,427.77,534.67,409.69Zm-87.38,100c-93.74,0-187.53,1-281.26,0-31.11-.34-59.28-9.31-73.79-39.9-8.28-17.44-6.47-37.15-6.47-56V239.37c0-41.92-11.64-108.63,22.86-140,32.26-29.31,102.1-17.23,141.76-17.23H421.84c20.52,0,41.07-1.6,59.67,9.32,27.31,16,33.74,43.73,33.74,72.62V349.41C515.25,407.52,531.61,505.06,447.28,509.64Z"/><path class="cls-1" d="M432,296,212.67,164.33c-6.38-3.83-14.38,1.12-14.51,8.33L196,300.56l-2.19,127.9c-.13,7.47,8.24,11.8,14.51,8.33L432,312.68C438.44,309.11,438.09,299.68,432,296Z"/></svg>