<svg id="Calque_1" data-name="Calque 1" xmlns="http://www.w3.org/2000/svg" viewBox="0 0 600.84 595.28"><defs><style>.cls-1{fill:#010101;}.cls-2{fill:#fdfdfd;}</style></defs><title>Plan de travail 1 copie 21</title><path class="cls-1" d="M536.73,419.69v-204c0-52,4.89-110.51-52.8-135.66-18.87-8.23-38.19-7.29-58.13-7.29H331.12c-57.42,0-115.1-1.66-172.49,0-60.24,1.75-90.23,47-90.23,102.9V371.26c0,47.49-10.51,109.25,28.55,144.87,41.32,37.68,123.11,22.92,173.94,22.92H449.35c39.1-2.12,73.38-25.47,84.15-64.26C538.39,457.2,536.73,437.77,536.73,419.69Zm-87.38,100c-93.74,0-187.53,1-281.26,0-31.11-.34-59.28-9.31-73.79-39.9-8.28-17.44-6.47-37.15-6.47-56V249.37c0-41.92-11.64-108.63,22.86-140,32.26-29.31,102.1-17.23,141.76-17.23H423.91c20.52,0,41.07-1.6,59.67,9.32,27.31,16,33.74,43.73,33.74,72.62V359.41C517.31,417.52,533.67,515.06,449.35,519.64Z"/><path class="cls-1" d="M464,233.83V190.52a9.36,9.36,0,0,0-9.23-9.23H360.95a9.36,9.36,0,0,0-9.23,9.23v43.31l9.23-9.23H168.19a9.36,9.36,0,0,0-9.23,9.23V428.64a9.36,9.36,0,0,0,9.23,9.23H455.27a9.36,9.36,0,0,0,9.23-9.23V233.83a9.36,9.36,0,0,0-9.23-9.23h-.51c-11.88,0-11.89,18.46,0,18.46h.51L446,233.83V428.64l9.23-9.23H168.19l9.23,9.23V233.83l-9.23,9.23H360.95a9.36,9.36,0,0,0,9.23-9.23V190.52l-9.23,9.23h93.81l-9.23-9.23v43.31C445.53,245.71,464,245.73,464,233.83Z"/><circle class="cls-1" cx="311.55" cy="331.05" r="58.62"/><path class="cls-1" d="M365.56,331.05c-3.72,69.13-108,69.78-108,0s104.29-69.19,108,0c.32,5.91,9.55,5.94,9.23,0-1.85-34.33-27.41-63.24-63.24-63.24-34.3,0-63.39,28.83-63.24,63.24.15,33.25,26.78,61.41,60,63.07,37.06,1.84,64.51-27.44,66.43-63.07C375.11,325.12,365.88,325.13,365.56,331.05Z"/><rect class="cls-2" x="304.55" y="305.6" width="12.3" height="30.76"/><polygon class="cls-2" points="310.85 363.07 289.14 333.45 332.56 333.45 310.85 363.07"/></svg>