<svg id="Calque_1" data-name="Calque 1" xmlns="http://www.w3.org/2000/svg" viewBox="0 0 600.84 595.28"><defs><style>.cls-1{fill:#010101;}</style></defs><title>Plan de travail 1 copie 12</title><path class="cls-1" d="M531.73,409.68v-204c0-52,4.89-110.51-52.8-135.66-18.87-8.23-38.19-7.29-58.13-7.29H326.12c-57.42,0-115.1-1.66-172.49,0-60.24,1.75-90.23,47-90.23,102.9V361.26c0,47.49-10.51,109.25,28.55,144.87,41.32,37.68,123.11,22.92,173.94,22.92H444.35c39.1-2.12,73.38-25.47,84.15-64.26C533.39,447.2,531.73,427.77,531.73,409.68Zm-87.38,100c-93.74,0-187.53,1-281.26,0-31.11-.34-59.28-9.31-73.79-39.9-8.28-17.44-6.47-37.15-6.47-56V239.37c0-41.92-11.64-108.63,22.86-140,32.26-29.31,102.1-17.23,141.76-17.23H418.91c20.52,0,41.07-1.6,59.67,9.32,27.31,16,33.74,43.73,33.74,72.62V349.41C512.31,407.52,528.67,505.06,444.35,509.64Z"/><path class="cls-1" d="M437,233.87V194.8a8.45,8.45,0,0,0-8.32-8.32H344.08a8.45,8.45,0,0,0-8.32,8.32v39.07l8.32-8.32H170.19a8.45,8.45,0,0,0-8.32,8.32V409.61a8.45,8.45,0,0,0,8.32,8.32h259a8.45,8.45,0,0,0,8.32-8.32V233.87a8.45,8.45,0,0,0-8.32-8.32h-.46c-10.71,0-10.73,16.65,0,16.65h.46l-8.32-8.32V409.61l8.32-8.32h-259l8.32,8.32V233.87l-8.32,8.32H344.08a8.45,8.45,0,0,0,8.32-8.32V194.8l-8.32,8.32h84.63l-8.32-8.32v39.07C420.38,244.59,437,244.6,437,233.87Z"/></svg>