<svg id="Calque_1" data-name="Calque 1" xmlns="http://www.w3.org/2000/svg" viewBox="0 0 600.84 595.28"><defs><style>.cls-1{fill:#010101;}.cls-2{fill:#fff;}</style></defs><title>Plan de travail 1 copie 9</title><path class="cls-1" d="M524.73,407.69v-204c0-52,4.89-110.51-52.8-135.66-18.87-8.23-38.19-7.29-58.13-7.29H319.12c-57.42,0-115.1-1.66-172.49,0-60.24,1.75-90.23,47-90.23,102.9V359.26c0,47.49-10.51,109.25,28.55,144.87,41.32,37.68,123.11,22.92,173.94,22.92H437.35c39.1-2.12,73.38-25.47,84.15-64.26C526.39,445.2,524.73,425.77,524.73,407.69Zm-87.38,100c-93.74,0-187.53,1-281.26,0-31.11-.34-59.28-9.31-73.79-39.9-8.28-17.44-6.47-37.15-6.47-56V237.37c0-41.92-11.64-108.63,22.86-140,32.26-29.31,102.1-17.23,141.76-17.23H411.91c20.52,0,41.07-1.6,59.67,9.32,27.31,16,33.74,43.73,33.74,72.62V347.41C505.31,405.52,521.67,503.06,437.35,507.64Z"/><path class="cls-1" d="M293.58,341.23C279.48,319.16,258,300.58,230.69,300c-27.32.53-48.78,19.11-62.89,41.18-19.82,31-27.3,68.84-27.79,105.18a3.13,3.13,0,0,0,3.09,3.09H318.28a3.13,3.13,0,0,0,3.09-3.09C320.88,410.07,313.4,372.23,293.58,341.23Z"/><path class="cls-1" d="M226.14,216.12A54.86,54.86,0,1,0,281,271,54.93,54.93,0,0,0,226.14,216.12Z"/><path class="cls-2" d="M226.14,208.64c-33.79,1.83-62.34,27.08-62.34,62.34,0,33.76,28.48,62.5,62.34,62.34,32.79-.15,60.64-26.55,62.18-59.36,1.71-36.42-27.18-63.44-62.18-65.33-9.62-.52-9.59,14.44,0,15,60.64,3.28,61.21,94.77,0,94.77s-60.69-91.49,0-94.77C235.71,223.08,235.77,208.11,226.14,208.64Z"/><path class="cls-1" d="M429.21,247.22c-10.76-16.84-27.14-31-48-31.41-20.84.41-37.21,14.58-48,31.41-15.12,23.65-20.82,52.51-21.2,80.23a2.39,2.39,0,0,0,2.36,2.36H448a2.39,2.39,0,0,0,2.36-2.36C450,299.73,444.32,270.87,429.21,247.22Z"/><path class="cls-1" d="M377.76,150.79a41.85,41.85,0,1,0,41.85,41.85A41.9,41.9,0,0,0,377.76,150.79Z"/><path class="cls-2" d="M377.76,143.31c-26.73,1.44-49.33,21.44-49.33,49.33,0,26.71,22.54,49.45,49.33,49.33,26-.12,48-21.07,49.21-47.06,1.3-28.78-21.55-50.11-49.21-51.61-9.62-.52-9.59,14.44,0,15,44,2.38,44.4,68.74,0,68.74s-44-66.36,0-68.74C387.33,157.75,387.39,142.79,377.76,143.31Z"/></svg>