<svg id="Calque_1" data-name="Calque 1" xmlns="http://www.w3.org/2000/svg" viewBox="0 0 600.84 595.28"><defs><style>.cls-1{fill:#010101;}</style></defs><title>Plan de travail 1 copie 3</title><path class="cls-1" d="M533.67,404.69v-204c0-52,4.89-110.51-52.8-135.66-18.87-8.23-38.19-7.29-58.13-7.29H328.06c-57.42,0-115.1-1.66-172.49,0-60.24,1.75-90.23,47-90.23,102.9V356.26c0,47.49-10.51,109.25,28.55,144.87C135.2,538.82,217,524.05,267.82,524.05H446.28c39.1-2.12,73.38-25.47,84.15-64.26C535.32,442.2,533.67,422.77,533.67,404.69Zm-87.38,100c-93.74,0-187.53,1-281.26,0-31.11-.34-59.28-9.31-73.79-39.9-8.28-17.44-6.47-37.15-6.47-56V234.37c0-41.92-11.64-108.63,22.86-140,32.26-29.31,102.1-17.23,141.76-17.23H420.84c20.52,0,41.07-1.6,59.67,9.32,27.31,16,33.74,43.73,33.74,72.62V344.41C514.25,402.52,530.6,500.06,446.28,504.64Z"/><path class="cls-1" d="M398.72,299.73,186.4,172.24c-6.17-3.71-13.92,1.09-14,8.06l-2.12,123.81-2.12,123.81c-.12,7.23,8,11.42,14,8.06L398.72,315.85C404.95,312.4,404.61,303.26,398.72,299.73Z"/><path class="cls-1" d="M463.41,302.08,304.74,205.63C297,200.94,290,213,297.68,217.72l148.8,90.45L289.9,404.74c-7.65,4.72-.63,16.84,7.07,12.09L463.41,314.16A7.08,7.08,0,0,0,463.41,302.08Z"/></svg>