<svg id="Calque_1" data-name="Calque 1" xmlns="http://www.w3.org/2000/svg" viewBox="0 0 600.84 595.28"><defs><style>.cls-1{fill:#010101;}</style></defs><title>Plan de travail 1 copie 24</title><path class="cls-1" d="M540.73,409.69v-204c0-52,4.89-110.51-52.8-135.66-18.87-8.23-38.19-7.29-58.13-7.29H335.12c-57.42,0-115.1-1.66-172.49,0-60.24,1.75-90.23,47-90.23,102.9V361.26c0,47.49-10.51,109.25,28.55,144.87,41.32,37.68,123.11,22.92,173.94,22.92H453.35c39.1-2.12,73.38-25.47,84.15-64.26C542.39,447.2,540.73,427.77,540.73,409.69Zm-87.38,100c-93.74,0-187.53,1-281.26,0-31.11-.34-59.28-9.31-73.79-39.9-8.28-17.44-6.47-37.15-6.47-56V239.37c0-41.92-11.64-108.63,22.86-140,32.26-29.31,102.1-17.23,141.76-17.23H427.91c20.52,0,41.07-1.6,59.67,9.32,27.31,16,33.74,43.73,33.74,72.62V349.41C521.31,407.52,537.67,505.06,453.35,509.64Z"/><path class="cls-1" d="M201.64,203,411,412.36c11.29,11.29,28.83-6.23,17.53-17.53L219.17,185.52c-11.29-11.29-28.83,6.23-17.53,17.53Z"/><path class="cls-1" d="M411,185.52,201.64,394.83c-11.29,11.29,6.23,28.83,17.53,17.53L428.48,203c11.29-11.29-6.23-28.83-17.53-17.53Z"/></svg>