<svg id="Calque_1" data-name="Calque 1" xmlns="http://www.w3.org/2000/svg" viewBox="0 0 600.84 595.28"><defs><style>.cls-1{fill:#010101;}</style></defs><title>Plan de travail 1 copie 19</title><path class="cls-1" d="M536.73,409.69v-204c0-52,4.89-110.51-52.8-135.66-18.87-8.23-38.19-7.29-58.13-7.29H331.12c-57.42,0-115.1-1.66-172.49,0-60.24,1.75-90.23,47-90.23,102.9V361.26c0,47.49-10.51,109.25,28.55,144.87,41.32,37.68,123.11,22.92,173.94,22.92H449.35c39.1-2.12,73.38-25.47,84.15-64.26C538.39,447.2,536.73,427.77,536.73,409.69Zm-87.38,100c-93.74,0-187.53,1-281.26,0-31.11-.34-59.28-9.31-73.79-39.9-8.28-17.44-6.47-37.15-6.47-56V239.37c0-41.92-11.64-108.63,22.86-140,32.26-29.31,102.1-17.23,141.76-17.23H423.91c20.52,0,41.07-1.6,59.67,9.32,27.31,16,33.74,43.73,33.74,72.62V349.41C517.31,407.52,533.67,505.06,449.35,509.64Z"/><path class="cls-1" d="M317.86,309.09q-.72-41.78-1.43-83.56c-.08-4.71-5.31-7.94-9.48-5.44l-89.27,53.6v-.09H143.53v74.15h74.15V347l92.13,51.11c4.09,2.27,9.56-.56,9.48-5.44Z"/><path class="cls-1" d="M350.11,265.58c20,4.93,36.48,21.95,38.8,42.64,2.38,21.18-7.21,47.86-29.62,54.48-4.33,1.28-2.49,8.07,1.87,6.78,25.47-7.52,37.26-36.78,34.78-61.26-2.41-23.79-20.81-43.73-44-49.42-4.39-1.08-6.27,5.7-1.87,6.78Z"/><path class="cls-1" d="M375.39,244.49c25.74,7.29,42.55,32.83,44.56,58.54,2,25.15-6.59,62.06-34.12,71.4-4.26,1.45-2.43,8.24,1.87,6.78,30.66-10.4,41.48-49.46,39.28-78.18-2.22-28.87-20.84-57.14-49.72-65.32-4.36-1.24-6.22,5.55-1.87,6.78Z"/><path class="cls-1" d="M403.51,231c28.82,9.69,43,43.47,44.61,71.3,1.56,27.53-5.79,73.39-34.17,84.81-4.15,1.67-2.34,8.47,1.87,6.78,33.2-13.36,41-60.91,39.33-91.59-1.74-31.19-17.81-67.33-49.77-78.08-4.3-1.45-6.14,5.34-1.87,6.78Z"/></svg>