<svg id="Calque_1" data-name="Calque 1" xmlns="http://www.w3.org/2000/svg" viewBox="0 0 600.84 595.28"><defs><style>.cls-1{fill:#010101;}</style></defs><title>Plan de travail 1 copie 22</title><path class="cls-1" d="M540.25,415.91v-204c0-52,4.89-110.51-52.8-135.66C468.58,68,449.27,69,429.32,69H334.64c-57.42,0-115.1-1.66-172.49,0-60.24,1.75-90.23,47-90.23,102.9V367.49c0,47.49-10.51,109.25,28.55,144.87,41.32,37.68,123.11,22.92,173.94,22.92H452.87C492,533.16,526.25,509.81,537,471,541.91,453.43,540.25,434,540.25,415.91Zm-87.38,100c-93.74,0-187.53,1-281.26,0-31.11-.34-59.28-9.31-73.79-39.9-8.28-17.44-6.47-37.15-6.47-56V245.6c0-41.92-11.64-108.63,22.86-140C146.46,76.3,216.3,88.39,256,88.39H427.43c20.52,0,41.07-1.6,59.67,9.32,27.31,16,33.74,43.73,33.74,72.62V355.64C520.84,413.75,537.19,511.29,452.87,515.87Z"/><path class="cls-1" d="M318.5,250.88c-3.42,63.56-99.24,64.12-99.24,0s95.81-63.58,99.24,0c1.23,22.79,36.83,22.93,35.6,0-2.49-46.19-37-85.21-85.21-85.21-46.31,0-85.21,38.92-85.21,85.21,0,45,36.68,83.12,81.54,85,49.63,2.1,86.32-37.31,88.89-85C355.33,228,319.73,228.06,318.5,250.88Z"/><path class="cls-1" d="M404.32,417.73l-80-122.08c-12.5-19.09-43.34-1.27-30.74,18l80,122.08c12.5,19.09,43.34,1.27,30.74-18Z"/></svg>