<svg id="Calque_1" data-name="Calque 1" xmlns="http://www.w3.org/2000/svg" viewBox="0 0 600.84 595.28"><defs><style>.cls-1{fill:#010101;}.cls-2{fill:#fdfdfd;}</style></defs><title>Plan de travail 1 copie 8</title><path class="cls-1" d="M531.73,411.69v-204c0-52,4.89-110.51-52.8-135.66-18.87-8.23-38.19-7.29-58.13-7.29H326.12c-57.42,0-115.1-1.66-172.49,0-60.24,1.75-90.23,47-90.23,102.9V363.26c0,47.49-10.51,109.25,28.55,144.87,41.32,37.68,123.11,22.92,173.94,22.92H444.35c39.1-2.12,73.38-25.47,84.15-64.26C533.39,449.2,531.73,429.77,531.73,411.69Zm-87.38,100c-93.74,0-187.53,1-281.26,0-31.11-.34-59.28-9.31-73.79-39.9-8.28-17.44-6.47-37.15-6.47-56V241.37c0-41.92-11.64-108.63,22.86-140,32.26-29.31,102.1-17.23,141.76-17.23H418.91c20.52,0,41.07-1.6,59.67,9.32,27.31,16,33.74,43.73,33.74,72.62V351.41C512.31,409.52,528.67,507.06,444.35,511.64Z"/><path class="cls-1" d="M451.43,292.69c-15.14-38-61.17-51-98.08-52.2-33.2,1.08-70.56,10.62-90.9,39.27-15.74,22.17-14,49.85,3.41,70.49,9.51,11.28,22,19.3,35.53,25a127.6,127.6,0,0,0,31.93,8.59c9.05,1.27,22.38-1.43,30.66,1,13,3.85,22.1,16.92,35.52,23.55a104.46,104.46,0,0,0,25.85,8.93A8.41,8.41,0,0,0,431.8,402c-35.78-24.27,2.87-39.84,15.07-60.13C455.91,326.87,458,309.15,451.43,292.69Zm-17,37.5c-6.36,13-21.57,16.19-28.19,26.61-7.21,11.36-7.42,23.54-3.31,34.45a62.87,62.87,0,0,1-21.47-20.2c-1.46-2.28-4.31-4.49-7.23-4.14-35.33,4.19-93.23-2.18-104.89-44.07-12.89-46.34,51.09-64.54,84-65.61,25.84.84,55.72,6.94,73.56,27.61C438.18,297.89,442.47,313.79,434.43,330.19Z"/><path class="cls-2" d="M237.26,196.37c-51.78,0-93.75,28.67-93.75,64,0,20.14,13.64,38.09,34.93,49.83,4.61,13.12,7.15,33.91-15.41,46.54,0,0,38.67-6.91,53.33-34a135.64,135.64,0,0,0,20.9,1.65c51.78,0,93.75-28.67,93.75-64S289,196.37,237.26,196.37Z"/><path class="cls-1" d="M237.26,188c-37,1.2-82.8,14.24-98.08,52.2a54.74,54.74,0,0,0,2.54,45.95c11.51,21.76,53.95,38.4,17.09,63.4a8.41,8.41,0,0,0,6.45,15.3,104.47,104.47,0,0,0,25.85-8.93c13.43-6.62,22.52-19.7,35.52-23.55,8.29-2.45,21.61.25,30.66-1a127.59,127.59,0,0,0,31.93-8.59c13.52-5.69,26-13.72,35.53-25,17.4-20.65,19.15-48.32,3.41-70.49-20.34-28.65-57.7-38.19-90.9-39.27-10.77-.35-10.76,16.39,0,16.74,34,1.1,95.76,19.21,84,65.61-10.65,42-70.51,48.15-104.89,44.07-2.91-.35-5.76,1.86-7.23,4.14-10.77,16.8-29.08,26.38-48.32,30.14l6.45,15.3c19.14-13,30.95-37.87,17.1-59.69-6.62-10.42-21.82-13.63-28.19-26.61-8-16.41-3.75-32.31,7.52-45.36,17.84-20.66,47.72-26.77,73.56-27.61C248,204.4,248,187.66,237.26,188Z"/></svg>