<svg id="Calque_1" data-name="Calque 1" xmlns="http://www.w3.org/2000/svg" viewBox="0 0 600.84 595.28"><defs><style>.cls-1{fill:#010101;}</style></defs><title>Plan de travail 1 copie 18</title><path class="cls-1" d="M541.73,414.69v-204c0-52,4.89-110.51-52.8-135.66-18.87-8.23-38.19-7.29-58.13-7.29H336.12c-57.42,0-115.1-1.66-172.49,0-60.24,1.75-90.23,47-90.23,102.9V366.26c0,47.49-10.51,109.25,28.55,144.87,41.32,37.68,123.11,22.92,173.94,22.92H454.35c39.1-2.12,73.38-25.47,84.15-64.26C543.39,452.2,541.73,432.77,541.73,414.69Zm-87.38,100c-93.74,0-187.53,1-281.26,0-31.11-.34-59.28-9.31-73.79-39.9-8.28-17.44-6.47-37.15-6.47-56V244.37c0-41.92-11.64-108.63,22.86-140,32.26-29.31,102.1-17.23,141.76-17.23H428.91c20.52,0,41.07-1.6,59.67,9.32,27.31,16,33.74,43.73,33.74,72.62V354.41C522.31,412.52,538.67,510.06,454.35,514.64Z"/><path class="cls-1" d="M430.21,302.36q-.39-31.43-.78-62.87c0-3.54-2.88-6-5.13-4.09l-58.66,48.94V233H200.34V377.38h165.3V322.91l60.22,46.41c2.22,1.71,5.18-.42,5.13-4.09Z"/></svg>