<svg id="Calque_1" data-name="Calque 1" xmlns="http://www.w3.org/2000/svg" viewBox="0 0 600.84 595.28"><defs><style>.cls-1{fill:#010101;}</style></defs><title>Plan de travail 1 copie 14</title><path class="cls-1" d="M536.73,411.68v-204c0-52,4.89-110.51-52.8-135.66-18.87-8.23-38.19-7.29-58.13-7.29H331.12c-57.42,0-115.1-1.66-172.49,0-60.24,1.75-90.23,47-90.23,102.9V363.26c0,47.49-10.51,109.25,28.55,144.87,41.32,37.68,123.11,22.92,173.94,22.92H449.35c39.1-2.12,73.38-25.47,84.15-64.26C538.39,449.2,536.73,429.77,536.73,411.68Zm-87.38,100c-93.74,0-187.53,1-281.26,0-31.11-.34-59.28-9.31-73.79-39.9-8.28-17.44-6.47-37.15-6.47-56V241.37c0-41.92-11.64-108.63,22.86-140,32.26-29.31,102.1-17.23,141.76-17.23H423.91c20.52,0,41.07-1.6,59.67,9.32,27.31,16,33.74,43.73,33.74,72.62V351.41C517.31,409.52,533.67,507.06,449.35,511.63Z"/><path class="cls-1" d="M260.63,435.87H167.52l7.31,7.31V165.35l-7.31,7.31h93.12l-7.31-7.31V443.18c0,9.41,14.62,9.42,14.62,0V165.35a7.41,7.41,0,0,0-7.31-7.31H167.52a7.41,7.41,0,0,0-7.31,7.31V443.18a7.41,7.41,0,0,0,7.31,7.31h93.12C270,450.49,270.05,435.87,260.63,435.87Z"/><path class="cls-1" d="M352.67,435.87H259.55l7.31,7.31V165.35l-7.31,7.31h93.12l-7.31-7.31V443.18c0,9.41,14.62,9.42,14.62,0V165.35a7.41,7.41,0,0,0-7.31-7.31H259.55a7.41,7.41,0,0,0-7.31,7.31V443.18a7.41,7.41,0,0,0,7.31,7.31h93.12C362.07,450.49,362.09,435.87,352.67,435.87Z"/><path class="cls-1" d="M444.43,436.07H351.31l7.31,7.31V165.55l-7.31,7.31h93.12l-7.31-7.31V443.38c0,9.41,14.62,9.42,14.62,0V165.55a7.41,7.41,0,0,0-7.31-7.31H351.31a7.41,7.41,0,0,0-7.31,7.31V443.38a7.41,7.41,0,0,0,7.31,7.31h93.12C453.84,450.69,453.85,436.07,444.43,436.07Z"/><circle class="cls-1" cx="212.3" cy="391.77" r="15.55"/><circle class="cls-1" cx="305.69" cy="391.36" r="15.55"/><circle class="cls-1" cx="401.79" cy="391.09" r="15.55"/><path class="cls-1" d="M237.08,342.11H188.36V204.87h48.72Zm-42.23-6.5h35.73V211.37H194.86Z"/><path class="cls-1" d="M329.12,342.11H280.39V204.87h48.72Zm-42.23-6.5h35.73V211.37H286.89Z"/><path class="cls-1" d="M427.11,342.38H378.39V205.14h48.72Zm-42.23-6.5h35.73V211.64H384.88Z"/><rect class="cls-1" x="204.33" y="226.8" width="18.68" height="1.62"/><rect class="cls-1" x="204.33" y="234.92" width="18.68" height="1.62"/><rect class="cls-1" x="204.6" y="243.28" width="18.68" height="1.62"/><rect class="cls-1" x="204.6" y="251.4" width="18.68" height="1.62"/><rect class="cls-1" x="204.47" y="259.62" width="18.68" height="1.62"/><rect class="cls-1" x="204.47" y="267.74" width="18.68" height="1.62"/><rect class="cls-1" x="204.74" y="276.09" width="18.68" height="1.62"/><rect class="cls-1" x="204.74" y="284.22" width="18.68" height="1.62"/><rect class="cls-1" x="295.89" y="225.78" width="18.68" height="1.62"/><rect class="cls-1" x="295.89" y="233.9" width="18.68" height="1.62"/><rect class="cls-1" x="296.16" y="242.26" width="18.68" height="1.62"/><rect class="cls-1" x="296.16" y="250.38" width="18.68" height="1.62"/><rect class="cls-1" x="296.03" y="258.6" width="18.68" height="1.62"/><rect class="cls-1" x="296.03" y="266.72" width="18.68" height="1.62"/><rect class="cls-1" x="296.3" y="275.08" width="18.68" height="1.62"/><rect class="cls-1" x="296.3" y="283.2" width="18.68" height="1.62"/><rect class="cls-1" x="393.95" y="225.17" width="18.68" height="1.62"/><rect class="cls-1" x="393.95" y="233.29" width="18.68" height="1.62"/><rect class="cls-1" x="394.22" y="241.65" width="18.68" height="1.62"/><rect class="cls-1" x="394.22" y="249.77" width="18.68" height="1.62"/><rect class="cls-1" x="394.08" y="257.99" width="18.68" height="1.62"/><rect class="cls-1" x="394.08" y="266.11" width="18.68" height="1.62"/><rect class="cls-1" x="394.35" y="274.47" width="18.68" height="1.62"/><rect class="cls-1" x="394.35" y="282.59" width="18.68" height="1.62"/></svg>