<svg id="Calque_1" data-name="Calque 1" xmlns="http://www.w3.org/2000/svg" viewBox="0 0 600.84 595.28"><defs><style>.cls-1{fill:#010101;}.cls-2{fill:#fff;}.cls-3{fill:#fdfbfb;}.cls-4{fill:#fdfdfd;}</style></defs><title>Plan de travail 1 copie 11</title><path class="cls-1" d="M535.73,415.62v-204c0-52,4.89-110.51-52.8-135.66-18.87-8.23-38.19-7.29-58.13-7.29H330.12c-57.42,0-115.1-1.66-172.49,0-60.24,1.75-90.23,47-90.23,102.9V367.2c0,47.49-10.51,109.25,28.55,144.87C137.26,549.75,219.06,535,269.89,535H448.35c39.1-2.12,73.38-25.47,84.15-64.26C537.39,453.14,535.73,433.7,535.73,415.62Zm-87.38,100c-93.74,0-187.53,1-281.26,0-31.11-.34-59.28-9.31-73.79-39.9-8.28-17.44-6.47-37.15-6.47-56V245.3c0-41.92-11.64-108.63,22.86-140C141.94,76,211.78,88.09,251.44,88.09H422.91c20.52,0,41.07-1.6,59.67,9.32,27.31,16,33.74,43.73,33.74,72.62V355.34C516.31,413.45,532.67,511,448.35,515.57Z"/><path class="cls-1" d="M372.22,309.16c-15.09-23.6-38-43.46-67.25-44-29.21.57-52.16,20.44-67.25,44-21.19,33.15-29.19,73.61-29.71,112.47a3.35,3.35,0,0,0,3.31,3.31H398.63a3.35,3.35,0,0,0,3.31-3.31C401.41,382.77,393.42,342.31,372.22,309.16Z"/><path class="cls-1" d="M300.1,175.38A58.67,58.67,0,1,0,358.77,234,58.73,58.73,0,0,0,300.1,175.38Z"/><path class="cls-2" d="M300.1,169.14c-35.19,1.9-64.9,28.18-64.9,64.9,0,35.15,29.64,65.06,64.9,64.9,34.12-.15,63.08-27.58,64.73-61.71,1.84-38-28.25-66.12-64.73-68.1-8-.43-8,12,0,12.48,67.09,3.62,67.72,104.85,0,104.85s-67.15-101.22,0-104.85C308.09,181.19,308.14,168.71,300.1,169.14Z"/><path class="cls-3" d="M317.23,383.69a25.89,25.89,0,0,1-10.65,1.92c-11.37,0-19.94-7.18-19.94-20.41,0-12.63,8.56-21.19,21.07-21.19,5,0,8.2,1.08,9.58,1.8L316,350a18.93,18.93,0,0,0-8.14-1.68c-9.46,0-15.74,6-15.74,16.64,0,9.87,5.69,16.22,15.5,16.22a20.84,20.84,0,0,0,8.5-1.68Z"/><path class="cls-4" d="M306.57,388.1c-13.63,0-22.43-9-22.43-22.91s9.69-23.69,23.57-23.69c6.1,0,9.54,1.46,10.74,2.08l1.82,1-2.68,9-2.65-1.29a16.21,16.21,0,0,0-7-1.42c-8.42,0-13.25,5.16-13.25,14.14,0,8.72,4.74,13.73,13,13.73a18.61,18.61,0,0,0,7.41-1.42L317.8,376l2.35,9-1.81.9C315.61,387.29,311.21,388.1,306.57,388.1ZM293,353a19.29,19.29,0,0,0-3.9,12.17c0,7.54,3.11,13.14,8.51,15.92-5-3.09-8-8.75-8-16.1A20.77,20.77,0,0,1,293,353Z"/></svg>