<svg id="Calque_1" data-name="Calque 1" xmlns="http://www.w3.org/2000/svg" viewBox="0 0 600.84 595.28"><defs><style>.cls-1{fill:#010101;}.cls-2{fill:#fff;}</style></defs><title>Plan de travail 1 copie 13</title><path class="cls-1" d="M533.67,411.69v-204c0-52,4.89-110.51-52.8-135.66-18.87-8.23-38.19-7.29-58.13-7.29H328.06c-57.42,0-115.1-1.66-172.49,0-60.24,1.75-90.23,47-90.23,102.9V363.26c0,47.49-10.51,109.25,28.55,144.87C135.2,545.82,217,531.05,267.82,531.05H446.28c39.1-2.12,73.38-25.47,84.15-64.26C535.32,449.2,533.67,429.77,533.67,411.69Zm-87.38,100c-93.74,0-187.53,1-281.26,0-31.11-.34-59.28-9.31-73.79-39.9-8.28-17.44-6.47-37.15-6.47-56V241.37c0-41.92-11.64-108.63,22.86-140,32.26-29.31,102.1-17.23,141.76-17.23H420.84c20.52,0,41.07-1.6,59.67,9.32,27.31,16,33.74,43.73,33.74,72.62V351.41C514.25,409.52,530.61,507.06,446.28,511.64Z"/><path class="cls-1" d="M408.8,191.66V162.5a6.3,6.3,0,0,0-6.21-6.21H339.43a6.3,6.3,0,0,0-6.21,6.21v29.16l6.21-6.21H209.68a6.3,6.3,0,0,0-6.21,6.21V322.8a6.3,6.3,0,0,0,6.21,6.21H402.93a6.3,6.3,0,0,0,6.21-6.21V191.66a6.3,6.3,0,0,0-6.21-6.21h-.35c-8,0-8,12.42,0,12.42h.35l-6.21-6.21V322.8l6.21-6.21H209.68l6.21,6.21V191.66l-6.21,6.21H339.43a6.3,6.3,0,0,0,6.21-6.21V162.5l-6.21,6.21h63.15l-6.21-6.21v29.16C396.38,199.65,408.8,199.67,408.8,191.66Z"/><polygon class="cls-2" points="402.42 248.6 402.42 219.45 339.26 219.45 339.26 248.6 209.5 248.6 209.5 379.74 402.76 379.74 402.76 248.6 402.42 248.6"/><path class="cls-1" d="M408.63,248.6V219.45a6.3,6.3,0,0,0-6.21-6.21H339.26a6.3,6.3,0,0,0-6.21,6.21V248.6l6.21-6.21H209.5a6.3,6.3,0,0,0-6.21,6.21V379.74A6.3,6.3,0,0,0,209.5,386H402.76a6.3,6.3,0,0,0,6.21-6.21V248.6a6.3,6.3,0,0,0-6.21-6.21h-.35c-8,0-8,12.42,0,12.42h.35l-6.21-6.21V379.74l6.21-6.21H209.5l6.21,6.21V248.6l-6.21,6.21H339.26a6.3,6.3,0,0,0,6.21-6.21V219.45l-6.21,6.21h63.15l-6.21-6.21V248.6C396.2,256.6,408.63,256.61,408.63,248.6Z"/><polygon class="cls-2" points="402.42 306.58 402.42 277.43 339.26 277.43 339.26 306.58 209.5 306.58 209.5 437.72 402.76 437.72 402.76 306.58 402.42 306.58"/><path class="cls-1" d="M408.63,306.58V277.43a6.3,6.3,0,0,0-6.21-6.21H339.26a6.3,6.3,0,0,0-6.21,6.21v29.16l6.21-6.21H209.5a6.3,6.3,0,0,0-6.21,6.21V437.72a6.3,6.3,0,0,0,6.21,6.21H402.76a6.3,6.3,0,0,0,6.21-6.21V306.58a6.3,6.3,0,0,0-6.21-6.21h-.35c-8,0-8,12.42,0,12.42h.35l-6.21-6.21V437.72l6.21-6.21H209.5l6.21,6.21V306.58l-6.21,6.21H339.26a6.3,6.3,0,0,0,6.21-6.21V277.43l-6.21,6.21h63.15l-6.21-6.21v29.16C396.2,314.58,408.63,314.59,408.63,306.58Z"/><rect class="cls-2" x="266.27" y="346.61" width="83.51" height="55.56"/><path class="cls-1" d="M349.79,399.07H273.73a38.5,38.5,0,0,0-6,0c-3.18.53,1.44,3.87,1.63,2.1.53-5,0-10.37,0-15.41V360c0-2.73,1.41-14.67-1.47-11.74s5.3,1.42,7.91,1.42h66.51a38.5,38.5,0,0,0,6,0c3.18-.53-1.44-3.87-1.63-2.1-.53,5,0,10.38,0,15.41v39.14c0,4,6.21,4,6.21,0V346.61a3.15,3.15,0,0,0-3.11-3.11H266.27a3.15,3.15,0,0,0-3.11,3.11v55.56a3.15,3.15,0,0,0,3.11,3.11h83.51C353.78,405.28,353.79,399.07,349.79,399.07Z"/><path class="cls-1" d="M278,369.22h57.29a1.55,1.55,0,0,0,0-3.11H278a1.55,1.55,0,0,0,0,3.11Z"/><path class="cls-1" d="M278,381.64h57.29a1.55,1.55,0,0,0,0-3.11H278a1.55,1.55,0,0,0,0,3.11Z"/></svg>