<svg id="Calque_1" data-name="Calque 1" xmlns="http://www.w3.org/2000/svg" viewBox="0 0 600.84 595.28"><defs><style>.cls-1{fill:#010101;}</style></defs><title>Plan de travail 1 copie 6</title><path class="cls-1" d="M538.26,405v-204c0-52,4.89-110.51-52.8-135.66-18.87-8.23-38.19-7.29-58.13-7.29H332.65c-57.42,0-115.1-1.66-172.49,0-60.24,1.75-90.23,47-90.23,102.9V356.63c0,47.49-10.51,109.25,28.55,144.87,41.32,37.68,123.11,22.92,173.94,22.92H450.87c39.1-2.12,73.38-25.47,84.15-64.26C539.91,442.57,538.26,423.14,538.26,405ZM450.87,505c-93.74,0-187.53,1-281.26,0-31.11-.34-59.28-9.31-73.79-39.9-8.28-17.44-6.47-37.15-6.47-56V234.73c0-41.92-11.64-108.63,22.86-140C144.46,65.44,214.3,77.52,254,77.52H425.43c20.52,0,41.07-1.6,59.67,9.32,27.31,16,33.74,43.73,33.74,72.62V344.78C518.84,402.88,535.19,500.42,450.87,505Z"/><path class="cls-1" d="M398.79,220.45c-62.58-.21-125.19,0-187.77-.63a8.07,8.07,0,0,0-3.75.83c-2.88.91-5,3.35-4.46,7.38l27.63,209.75c.58,4.41,3.29,8.22,8.22,8.22H374.92c4.81,0,7.71-3.79,8.22-8.22L407,228.66C407.51,224.23,402.83,220.46,398.79,220.45Z"/><path class="cls-1" d="M409.14,195.62l-84.65-15a21.1,21.1,0,1,0-28.13-5l-86.3-15.25c-10.34-1.83-14.78,14-4.37,15.85l199.07,35.17C415.11,213.29,419.55,197.46,409.14,195.62Z"/></svg>