<svg id="Calque_1" data-name="Calque 1" xmlns="http://www.w3.org/2000/svg" viewBox="0 0 600.84 595.28"><defs><style>.cls-1{fill:#010101;}</style></defs><title>Plan de travail 1 copie 4</title><path class="cls-1" d="M534.73,406.69v-204c0-52,4.89-110.51-52.8-135.66-18.87-8.23-38.19-7.29-58.13-7.29H329.12c-57.42,0-115.1-1.66-172.49,0-60.24,1.75-90.23,47-90.23,102.9V358.26c0,47.49-10.51,109.25,28.55,144.87,41.32,37.68,123.11,22.92,173.94,22.92H447.35c39.1-2.12,73.38-25.47,84.15-64.26C536.38,444.2,534.73,424.77,534.73,406.69Zm-87.38,100c-93.74,0-187.53,1-281.26,0-31.11-.34-59.28-9.31-73.79-39.9-8.28-17.44-6.47-37.15-6.47-56V236.37c0-41.92-11.64-108.63,22.86-140,32.26-29.31,102.1-17.23,141.76-17.23H421.91c20.52,0,41.07-1.6,59.67,9.32,27.31,16,33.74,43.73,33.74,72.62V346.41C515.31,404.52,531.67,502.06,447.35,506.64Z"/><path class="cls-1" d="M211.13,299.73,423.45,172.24c6.17-3.71,13.92,1.09,14,8.06l2.12,123.81,2.12,123.81c.12,7.23-8,11.42-14,8.06L211.13,315.85C204.9,312.4,205.24,303.26,211.13,299.73Z"/><path class="cls-1" d="M146.44,302.08l158.67-96.45c7.72-4.69,14.76,7.41,7.07,12.09l-148.8,90.45L320,404.74c7.65,4.72.63,16.84-7.07,12.09L146.44,314.16A7.08,7.08,0,0,1,146.44,302.08Z"/></svg>