<svg id="Calque_1" data-name="Calque 1" xmlns="http://www.w3.org/2000/svg" viewBox="0 0 600.84 595.28"><defs><style>.cls-1{fill:#010101;}.cls-2{fill:#fff;}</style></defs><title>Plan de travail 1 copie 15</title><path class="cls-1" d="M531.73,412.69v-204c0-52,4.89-110.51-52.8-135.66-18.87-8.23-38.19-7.29-58.13-7.29H326.12c-57.42,0-115.1-1.66-172.49,0-60.24,1.75-90.23,47-90.23,102.9V364.26c0,47.49-10.51,109.25,28.55,144.87,41.32,37.68,123.11,22.92,173.94,22.92H444.35c39.1-2.12,73.38-25.47,84.15-64.26C533.39,450.2,531.73,430.77,531.73,412.69Zm-87.38,100c-93.74,0-187.53,1-281.26,0-31.11-.34-59.28-9.31-73.79-39.9-8.28-17.44-6.47-37.15-6.47-56V242.37c0-41.92-11.64-108.63,22.86-140,32.26-29.31,102.1-17.23,141.76-17.23H418.91c20.52,0,41.07-1.6,59.67,9.32,27.31,16,33.74,43.73,33.74,72.62V352.41C512.31,410.52,528.67,508.06,444.35,512.64Z"/><path class="cls-1" d="M457.65,307c-13.55-47.59-45.58-80.19-71.55-72.79-.66.19-1.29.41-1.93.65H215.3c-.64-.23-1.27-.46-1.93-.65-26-7.39-58,25.2-71.55,72.79s-3.48,92.17,22.49,99.56c25.79,7.34,57.55-24.75,71.25-71.8H363.9c13.71,47.05,45.47,79.14,71.25,71.8C461.13,399.15,471.2,354.58,457.65,307Z"/><circle class="cls-2" cx="208.69" cy="292.49" r="29.65"/><circle class="cls-2" cx="388.74" cy="293.95" r="29.65"/><polygon class="cls-1" points="231.62 287.01 212.91 287.01 212.91 267.96 203.28 267.96 203.28 287.01 184.57 287.01 184.57 296.64 203.28 296.64 203.28 315.35 212.91 315.35 212.91 296.64 231.62 296.64 231.62 287.01"/><circle class="cls-1" cx="388.31" cy="279.83" r="9.56"/><circle class="cls-1" cx="388.13" cy="309.75" r="9.56"/><circle class="cls-1" cx="402.3" cy="295.14" r="9.56"/><circle class="cls-1" cx="374.59" cy="294.55" r="9.56"/></svg>