<svg id="Calque_1" data-name="Calque 1" xmlns="http://www.w3.org/2000/svg" viewBox="0 0 600.84 595.28"><defs><style>.cls-1{fill:#010101;}.cls-2{fill:#fff;}</style></defs><title>Plan de travail 1</title><path class="cls-1" d="M530.73,411.69v-204c0-52,4.89-110.51-52.8-135.66-18.87-8.23-38.19-7.29-58.13-7.29H325.12c-57.42,0-115.1-1.66-172.49,0-60.24,1.75-90.23,47-90.23,102.9V363.26c0,47.49-10.51,109.25,28.55,144.87,41.32,37.68,123.11,22.92,173.94,22.92H443.35c39.1-2.12,73.38-25.47,84.15-64.26C532.39,449.2,530.73,429.77,530.73,411.69Zm-87.38,100c-93.74,0-187.53,1-281.26,0-31.11-.34-59.28-9.31-73.79-39.9-8.28-17.44-6.47-37.15-6.47-56V241.37c0-41.92-11.64-108.63,22.86-140,32.26-29.31,102.1-17.23,141.76-17.23H417.91c20.52,0,41.07-1.6,59.67,9.32,27.31,16,33.74,43.73,33.74,72.62V351.41C511.31,409.52,527.67,507.06,443.35,511.64Z"/><rect class="cls-2" x="152.32" y="193.4" width="286.61" height="207.32"/><path class="cls-1" d="M438.93,392.31H152.32l7.07,8.41V193.4l-7.07,8.41H438.93l-7.07-8.41V400.72c0,10.83,14.15,10.84,14.15,0V193.4c0-4.55-3.24-8.41-7.07-8.41H152.32c-3.82,0-7.07,3.85-7.07,8.41V400.72c0,4.55,3.24,8.41,7.07,8.41H438.93C448,409.14,448,392.31,438.93,392.31Z"/><path class="cls-1" d="M434,187.29H157.3c-5.74,0-9.85,9.52-5,14.36L290.64,339.87a7.12,7.12,0,0,0,10,0L439,201.66C443.82,196.82,439.75,187.29,434,187.29Z"/><path class="cls-1" d="M159.26,402.07l98.12-102.89c6.84-7.17-3.19-19-10-11.9L149.26,390.17c-6.84,7.17,3.19,19,10,11.9Z"/><path class="cls-1" d="M159.26,402.07l98.12-102.89c6.84-7.17-3.19-19-10-11.9L149.26,390.17c-6.84,7.17,3.19,19,10,11.9Z"/><path class="cls-1" d="M440.7,390.94,342.59,288c-6.81-7.14-16.85,4.72-10,11.9L430.7,402.83c6.81,7.14,16.85-4.72,10-11.9Z"/></svg>