<svg id="Calque_1" data-name="Calque 1" xmlns="http://www.w3.org/2000/svg" viewBox="0 0 600.84 595.28"><defs><style>.cls-1{fill:#010101;}</style></defs><title>Plan de travail 1 copie 20</title><path class="cls-1" d="M528.73,415.69v-204c0-52,4.89-110.51-52.8-135.66-18.87-8.23-38.19-7.29-58.13-7.29H323.12c-57.42,0-115.1-1.66-172.49,0-60.24,1.75-90.23,47-90.23,102.9V367.26c0,47.49-10.51,109.25,28.55,144.87,41.32,37.68,123.11,22.92,173.94,22.92H441.35c39.1-2.12,73.38-25.47,84.15-64.26C530.39,453.2,528.73,433.77,528.73,415.69Zm-87.38,100c-93.74,0-187.53,1-281.26,0-31.11-.34-59.28-9.31-73.79-39.9-8.28-17.44-6.47-37.15-6.47-56V245.37c0-41.92-11.64-108.63,22.86-140,32.26-29.31,102.1-17.23,141.76-17.23H415.91c20.52,0,41.07-1.6,59.67,9.32,27.31,16,33.74,43.73,33.74,72.62V355.41C509.31,413.52,525.67,511.06,441.35,515.64Z"/><path class="cls-1" d="M376.28,180.93H205.48c-32.25,0-32.31,50.12,0,50.12h60.34V421.62c0,32.25,50.12,32.31,50.12,0V231.06h60.33C408.53,231.06,408.58,180.93,376.28,180.93Z"/></svg>