<svg id="Calque_1" data-name="Calque 1" xmlns="http://www.w3.org/2000/svg" viewBox="0 0 600.84 595.28"><defs><style>.cls-1{fill:#010101;}</style></defs><title>Plan de travail 1 copie 16</title><path class="cls-1" d="M533.73,422.69v-204c0-52,4.89-110.51-52.8-135.66-18.87-8.23-38.19-7.29-58.13-7.29H328.12c-57.42,0-115.1-1.66-172.49,0-60.24,1.75-90.23,47-90.23,102.9V374.26c0,47.49-10.51,109.25,28.55,144.87,41.32,37.68,123.11,22.92,173.94,22.92H446.35c39.1-2.12,73.38-25.47,84.15-64.26C535.39,460.2,533.73,440.77,533.73,422.69Zm-87.38,100c-93.74,0-187.53,1-281.26,0-31.11-.34-59.28-9.31-73.79-39.9-8.28-17.44-6.47-37.15-6.47-56V252.37c0-41.92-11.64-108.63,22.86-140,32.26-29.31,102.1-17.23,141.76-17.23H420.91c20.52,0,41.07-1.6,59.67,9.32,27.31,16,33.74,43.73,33.74,72.62V362.41C514.31,420.52,530.67,518.06,446.35,522.64Z"/><path class="cls-1" d="M382.56,276.23c4.71-40.82-11.92-87.39-53.15-102.06-62.65-22.29-125.35,18.8-125.82,85.06-.23,32.5,12,61.25,31.6,86.6,10.08,13.06,25.52,25.11,32.79,39.89s3.77,32.43,10.92,47.23c9.23,19.12,30.69,27.52,50.7,20.59,28.27-9.79,36.48-40.09,34.37-67-1.07-13.69-22.57-13.81-21.49,0,1.07,13.64.85,29.58-9.57,40C322,437.4,307.15,436.65,299.16,424c-9.06-14.41-4.88-35.56-13.87-51.2-23-40.05-60.51-62-60.23-113.53.31-56.32,70.9-96.09,116.12-53.45,18.17,17.13,22.64,46.58,19.89,70.45-1.58,13.71,19.92,13.6,21.49,0Z"/><path class="cls-1" d="M279.7,281.18c.55-6.17,4.76-18.75,13.66-22,29.65-10.7,19.89,29.34,14.47,41.86-7.15,16.52-17.27,48.22,10.7,50.33,13.79,1,13.72-20.45,0-21.49,2.36.18,9.54-21.17,11.67-26.22,3.9-9.27,6.82-19.16,6.59-29.34-.35-16-8.94-30.32-24.55-35.33-29.68-9.52-51.53,14.39-54,42.14-1.24,13.77,20.26,13.68,21.49,0Z"/></svg>