<svg id="Calque_1" data-name="Calque 1" xmlns="http://www.w3.org/2000/svg" viewBox="0 0 600.84 595.28"><defs><style>.cls-1{fill:#010101;}.cls-2{fill:#fdfdfd;}</style></defs><title>Plan de travail 1 copie 7</title><path class="cls-1" d="M534.73,406.69v-204c0-52,4.89-110.51-52.8-135.66-18.87-8.23-38.19-7.29-58.13-7.29H329.12c-57.42,0-115.1-1.66-172.49,0-60.24,1.75-90.23,47-90.23,102.9V358.26c0,47.49-10.51,109.25,28.55,144.87,41.32,37.68,123.11,22.92,173.94,22.92H447.35c39.1-2.12,73.38-25.47,84.15-64.26C536.39,444.2,534.73,424.77,534.73,406.69Zm-87.38,100c-93.74,0-187.53,1-281.26,0-31.11-.34-59.28-9.31-73.79-39.9-8.28-17.44-6.47-37.15-6.47-56V236.37c0-41.92-11.64-108.63,22.86-140,32.26-29.31,102.1-17.23,141.76-17.23H421.91c20.52,0,41.07-1.6,59.67,9.32,27.31,16,33.74,43.73,33.74,72.62V346.41C515.31,404.52,531.67,502.06,447.35,506.64Z"/><path class="cls-1" d="M439.65,224.1V185.27a8.39,8.39,0,0,0-8.27-8.27h-84.1a8.39,8.39,0,0,0-8.27,8.27V224.1l8.27-8.27H174.48a8.39,8.39,0,0,0-8.27,8.27V398.73a8.39,8.39,0,0,0,8.27,8.27H431.83a8.39,8.39,0,0,0,8.27-8.27V224.1a8.39,8.39,0,0,0-8.27-8.27h-.46c-10.65,0-10.66,16.54,0,16.54h.46l-8.27-8.27V398.73l8.27-8.27H174.48l8.27,8.27V224.1l-8.27,8.27H347.28a8.39,8.39,0,0,0,8.27-8.27V185.27l-8.27,8.27h84.1l-8.27-8.27V224.1C423.1,234.74,439.65,234.76,439.65,224.1Z"/><polygon class="cls-2" points="460.1 226.4 356.47 226.85 348.65 258.03 195.39 257.29 175.86 397.81 433.21 397.81 460.1 226.4"/><path class="cls-1" d="M460.1,218.12l-103.63.46a8.42,8.42,0,0,0-8,6.07l-7.81,31.17,8-6.07L195.39,249c-3.23,0-7.49,2.56-8,6.07L167.89,395.61c-.72,5.21,2,10.47,8,10.47H433.21c3.29,0,7.42-2.54,8-6.07l26.88-171.41c1.63-10.42-14.31-14.9-16-4.4L425.24,395.61l8-6.07H175.86l8,10.47,19.53-140.52-8,6.07,153.26.74a8.41,8.41,0,0,0,8-6.07l7.81-31.17-8,6.07,103.63-.46C470.74,234.62,470.76,218.08,460.1,218.12Z"/></svg>