<svg id="Calque_1" data-name="Calque 1" xmlns="http://www.w3.org/2000/svg" viewBox="0 0 600.84 595.28"><defs><style>.cls-1{fill:#010101;}.cls-2{fill:#fff;}</style></defs><title>Plan de travail 1 copie 10</title><path class="cls-1" d="M529.39,412V208c0-52,4.89-110.51-52.8-135.66C457.72,64.1,438.4,65,418.45,65H323.77c-57.42,0-115.1-1.66-172.49,0-60.24,1.75-90.23,47-90.23,102.9V363.56c0,47.49-10.51,109.25,28.55,144.87,41.32,37.68,123.11,22.92,173.94,22.92H442c39.1-2.12,73.38-25.47,84.15-64.26C531,449.5,529.39,430.07,529.39,412ZM442,511.93c-93.74,0-187.53,1-281.26,0-31.11-.34-59.28-9.31-73.79-39.9-8.28-17.44-6.47-37.15-6.47-56V241.67c0-41.92-11.64-108.63,22.86-140,32.26-29.31,102.1-17.23,141.76-17.23H416.56c20.52,0,41.07-1.6,59.67,9.32,27.31,16,33.74,43.73,33.74,72.62V351.71C510,409.82,526.32,507.35,442,511.93Z"/><path class="cls-1" d="M356.6,307.23c-15.67-24.52-39.52-45.15-69.86-45.75-30.34.59-54.19,21.23-69.86,45.75-22,34.44-30.32,76.47-30.87,116.84a3.48,3.48,0,0,0,3.43,3.43H384a3.48,3.48,0,0,0,3.43-3.43C386.92,383.7,378.61,341.67,356.6,307.23Z"/><path class="cls-1" d="M281.68,168.26a60.94,60.94,0,1,0,60.94,60.94A61,61,0,0,0,281.68,168.26Z"/><path class="cls-2" d="M281.68,159.95c-37.54,2-69.25,30.08-69.25,69.25,0,37.5,31.63,69.42,69.25,69.25,36.42-.16,67.36-29.49,69.07-65.94,1.9-40.46-30.19-70.47-69.07-72.57-10.69-.58-10.65,16,0,16.62,67.36,3.64,68,105.27,0,105.27s-67.41-101.63,0-105.27C292.31,176,292.38,159.37,281.68,159.95Z"/></svg>